<?xml version="1.0" encoding="utf-8"?>
<!-- Generator: Adobe Illustrator 25.2.0, SVG Export Plug-In . SVG Version: 6.00 Build 0)  -->
<svg version="1.1" id="Layer_1" xmlns="http://www.w3.org/2000/svg" xmlns:xlink="http://www.w3.org/1999/xlink" x="0px" y="0px"
	 viewBox="0 0 1024 1024" style="enable-background:new 0 0 1024 1024;" xml:space="preserve">
<style type="text/css">
	.st0{clip-path:url(#SVGID_2_);fill:#007AB5;}
	.st1{clip-path:url(#SVGID_2_);fill:#001F2E;}
</style>
<g>
	<defs>
		<rect id="SVGID_1_" x="1.95" y="1.95" width="1024" height="1024"/>
	</defs>
	<clipPath id="SVGID_2_">
		<use xlink:href="#SVGID_1_"  style="overflow:visible;"/>
	</clipPath>
	<rect x="1.95" y="1.95" class="st0" width="1024" height="1024"/>
	<path class="st1" d="M685.08,284.01l84.59,356.73c12.4,54.58-15.41,95.96-57.03,126.11c-17.88,12.95-37.88,24.02-59.19,33.2
		l15.67,94.56c0.57,2.88,0.86,5.8,0.86,8.73c0,25.21-20.87,45.65-46.6,45.65h-88.49c15.69-8.61,26.3-25.05,26.3-43.92
		c0-3.24-0.32-6.46-0.94-9.63l-15.61-93.68c-0.59-3.55-3.98-5.98-7.53-5.39l-3.47,0.58c-3.55,0.59-5.98,3.98-5.39,7.53l14.93,90.12
		c0.57,2.88,0.86,5.8,0.86,8.73c0,25.21-20.87,45.65-46.6,45.65c-5.71,0-11.38-1.61-16.33-5.03c2,0.55,4.06,0.85,6.15,0.85
		c17.1,0,30.2-19.35,29.25-43.21c-0.94-23.85-15.58-43.21-32.66-43.21c-10.42,0-19.35,7.18-24.52,18.19l-7.49-45.2
		c-2.08-0.2-4.15-0.42-6.21-0.66c-53.59-6.23-102.72-26.75-114.11-76.88l-79.09-361.67c-13.93-63.74,30.36-112.2,81.36-143.93
		c69-42.93,153.06-55.76,233.1-44.42C614.44,210.56,672.52,231.05,685.08,284.01L685.08,284.01z M538.8,963.92v247.03h-36.84V963.92
		H538.8L538.8,963.92z M645.74,963.92v247.03h-89.8V963.92H645.74L645.74,963.92z M663.53,944.38
		c12.67-8.16,21.04-22.21,21.04-38.17c0-2.94-0.29-5.86-0.86-8.73l-6.3-38.04c12.19,6.37,21.31,22.51,22.06,41.41
		c0.97,24.47-12.46,44.31-30,44.31C667.45,945.15,665.46,944.88,663.53,944.38L663.53,944.38z M478.37,874.32
		c10.83,0,20.12,12.27,20.71,27.4c0.6,15.13-7.7,27.4-18.55,27.4c-10.84,0-20.12-12.27-20.71-27.4
		C459.22,886.6,467.53,874.32,478.37,874.32L478.37,874.32z M741.8,653.31c-0.3-1.97-0.68-3.97-1.13-5.98l-8.08-34.02H551.28
		c-20.03,0-33.45,3.1-50.25,12.35l-69.69,38.39c-4.31,2.41-9.96-0.09-11.19-5.02l-5.46-24.83c-0.72-3.28,0.8-6.73,3.76-8.39
		l62.99-34.81c27.4-15.13,40.19-15.89,72.99-15.89h169.1l-7.92-33.36H535.62c-20.03,0-33.45,3.1-50.25,12.35l-69.69,38.39
		c-4.31,2.41-9.96-0.09-11.19-5.02l-5.46-24.83c-0.72-3.28,0.8-6.73,3.76-8.39l62.99-34.81c27.4-15.13,40.19-15.89,72.99-15.89
		h167.78l-7.92-33.36H519.96c-20.03,0-33.45,3.1-50.25,12.35l-69.69,38.39c-4.31,2.41-9.96-0.09-11.19-5.02l-5.46-24.83
		c-0.72-3.28,0.8-6.73,3.76-8.39l63-34.81c27.4-15.13,40.19-15.89,72.99-15.89h166.45l-7.92-33.36H504.3
		c-20.03,0-33.45,3.1-50.25,12.35l-69.69,38.39c-4.31,2.41-9.96-0.09-11.19-5.02l-5.46-24.83c-0.72-3.28,0.8-6.73,3.76-8.39
		l63-34.81c27.4-15.13,40.19-15.89,72.99-15.89h165.13l-7.92-33.36H488.64c-20.03,0-33.45,3.1-50.25,12.35l-69.69,38.39
		c-4.31,2.41-9.96-0.09-11.19-5.02l-5.46-24.83c-0.72-3.28,0.8-6.73,3.76-8.39l63-34.81c27.4-15.13,40.19-15.89,72.99-15.89h163.77
		c-10.54-38.08-59.22-50.87-92.77-55.62c-73.1-10.35-150.24,0.99-213.29,40.22c-40.42,25.15-75.94,61.91-68.85,107.55l24.66-13.59
		c4.31-2.41,9.96,0.09,11.19,5.02l5.46,24.83c0.72,3.28-0.8,6.73-3.76,8.39l-28.85,15.94l6.78,31.05l24.83-13.68
		c4.31-2.41,9.96,0.09,11.19,5.02l5.46,24.83c0.72,3.28-0.8,6.73-3.76,8.39L305,493.23l6.79,31.05l24.85-13.69
		c4.31-2.41,9.96,0.09,11.19,5.02l5.46,24.83c0.72,3.28-0.8,6.73-3.76,8.39l-28.89,15.96l6.78,31.05l24.87-13.7
		c4.31-2.41,9.96,0.09,11.19,5.02l5.46,24.83c0.72,3.28-0.8,6.73-3.76,8.39l-28.91,15.97l6.78,31.05l24.89-13.71
		c4.31-2.41,9.96,0.09,11.19,5.02l5.46,24.83c0.72,3.28-0.8,6.73-3.76,8.39l-28.93,15.99l8.22,37.63l138.34-76.34
		c27.4-15.13,40.19-15.89,72.99-15.89H741.8L741.8,653.31z"/>
</g>
</svg>
